<svg width="20" height="20" viewBox="0 0 20 20" fill="none" xmlns="http://www.w3.org/2000/svg">
    <path d="M8.74991 0C9.44132 0 9.99991 0.558594 9.99991 1.25V9.375H7.49991V1.25C7.49991 0.558594 8.05851 0 8.74991 0ZM12.4999 6.25C13.1913 6.25 13.7499 6.80859 13.7499 7.5V10C13.7499 10.6914 13.1913 11.25 12.4999 11.25C11.8085 11.25 11.2499 10.6914 11.2499 10V7.5C11.2499 6.80859 11.8085 6.25 12.4999 6.25ZM14.9999 8.75C14.9999 8.05859 15.5585 7.5 16.2499 7.5C16.9413 7.5 17.4999 8.05859 17.4999 8.75V11.25C17.4999 11.9414 16.9413 12.5 16.2499 12.5C15.5585 12.5 14.9999 11.9414 14.9999 11.25V8.75ZM3.64444 2L6.87101 9.375H4.14054L1.35538 3C1.07804 2.36719 1.3671 1.63281 1.99991 1.35547C2.63272 1.07812 3.37101 1.36719 3.64444 2ZM4.69913 10.6445L4.69132 10.625H7.42179H8.44132C9.3046 10.625 10.0038 11.3242 10.0038 12.1875C10.0038 13.0508 9.3046 13.75 8.44132 13.75H6.25382C5.91007 13.75 5.62882 14.0312 5.62882 14.375C5.62882 14.7188 5.91007 15 6.25382 15H8.44132C9.99601 15 11.2538 13.7422 11.2538 12.1875V12.1641C11.621 12.375 12.0468 12.5 12.5038 12.5C13.0194 12.5 13.496 12.3438 13.8944 12.0781C14.2343 13.0508 15.164 13.75 16.2538 13.75C16.7108 13.75 17.1366 13.6289 17.5038 13.4141V13.75C17.5038 17.2031 14.7069 20 11.2538 20H8.84366C7.18741 20 5.59757 19.3398 4.42569 18.168L3.97257 17.7148C3.02726 16.7773 2.49991 15.5039 2.49991 14.1797V13.125C2.49991 11.8477 3.46085 10.793 4.69913 10.6445Z" fill="#FFFFFF"/>
</svg>
