<svg width="21" height="20" viewBox="0 0 21 20" fill="none" xmlns="http://www.w3.org/2000/svg">

        <path d="M19.4165 1.25217C19.4165 0.748268 19.1118 0.291237 18.6431 0.0959246C18.1743 -0.0993879 17.6392 0.00998709 17.2798 0.365456L15.5767 2.07249C13.7017 3.94749 11.1587 5.00217 8.50635 5.00217H8.1665H6.9165H3.1665C1.7876 5.00217 0.666504 6.12327 0.666504 7.50217V11.2522C0.666504 12.6311 1.7876 13.7522 3.1665 13.7522V18.7522C3.1665 19.4436 3.7251 20.0022 4.4165 20.0022H6.9165C7.60791 20.0022 8.1665 19.4436 8.1665 18.7522V13.7522H8.50635C11.1587 13.7522 13.7017 14.8069 15.5767 16.6819L17.2798 18.385C17.6392 18.7444 18.1743 18.8498 18.6431 18.6545C19.1118 18.4592 19.4165 18.0061 19.4165 17.4983V11.7326C20.1431 11.3889 20.6665 10.4631 20.6665 9.37327C20.6665 8.28342 20.1431 7.35764 19.4165 7.01389V1.25217ZM16.9165 4.24827V9.37717V14.5061C14.6196 12.4162 11.6235 11.2522 8.50635 11.2522H8.1665V7.50217H8.50635C11.6235 7.50217 14.6196 6.33811 16.9165 4.24827Z" fill="#FFFFFF"/>

</svg>
