<svg width="60" height="16" viewBox="0 0 60 16" fill="none" xmlns="http://www.w3.org/2000/svg">
    <path d="M60 3.04717V0.5H51.9431V3.04717H53.0806V12.8585H51.9431V15.5H60V12.9528H56.9668L56.1137 13.8019H55.6398L55.9242 12.9528V9.17924H59.4313V6.63208H55.9242V3.04717H60ZM50.5213 5.9717V1.91509L49.0995 0.5H42.654L41.2322 1.91509V13.8962L42.654 15.5H49.0995L50.5213 14.0849V7.48113H45.6872V10.0283H47.6777V12.5755L47.2986 12.9528H45.1185L44.2654 13.8019H43.7915L44.0758 12.9528V3.42453L44.455 3.04717H47.2986L47.6777 3.42453V5.9717H50.5213ZM38.1043 0.5H29.3839V3.04717H30.5213V12.9528H29.3839V15.5H38.1043L39.5261 14.0849V1.91509L38.1043 0.5ZM36.6825 12.5755L36.3033 12.9528H34.4076L33.5545 13.8019H33.0806L33.3649 12.9528V3.04717H36.3033L36.6825 3.42453V12.5755ZM27.9621 3.04717V0.5H22.654V3.04717H23.7915V12.9528H22.654V15.5H27.9621V12.9528H26.8246V3.04717H27.9621ZM20.3791 12.8585L18.9573 9.93396H19.8104L21.2322 8.51887V1.91509L19.8104 0.5H11.4692V3.04717H12.5118V12.9528H11.4692V15.5H15.3555V9.93396H15.7346L18.2938 15.5H21.5166V12.8585H20.3791ZM18.3886 7.00943L18.0095 7.38679H16.3981L15.545 8.23585H15.0711L15.3555 7.38679V3.04717H18.0095L18.3886 3.42453V7.00943ZM10.0474 6.53774V1.91509L8.62559 0.5H0V3.04717H1.13744V12.9528H0V15.5H8.62559L10.0474 14.0849V8.89623L8.43602 8.42453V6.91509L10.0474 6.53774ZM6.91943 12.5755L6.54028 12.9528H5.0237L4.17062 13.8019H3.69668L3.98104 12.9528V9.17924H6.91943V12.5755ZM6.91943 6.63208H5.0237L4.17062 7.48113H3.69668L3.98104 6.63208V3.04717H6.54028L6.91943 3.42453V6.63208Z" fill="white"/>
</svg>
