<svg width="21" height="20" viewBox="0 0 21 20" fill="none" xmlns="http://www.w3.org/2000/svg">
    <path d="M2.88873 1.25C1.66303 1.25 0.666504 2.23096 0.666504 3.4375V14.5312C0.666504 15.7378 1.66303 16.7188 2.88873 16.7188H8.99984L8.62831 17.8125H6.22206C5.60748 17.8125 5.11095 18.3013 5.11095 18.9062C5.11095 19.5112 5.60748 20 6.22206 20H15.1109C15.7255 20 16.2221 19.5112 16.2221 18.9062C16.2221 18.3013 15.7255 17.8125 15.1109 17.8125H12.7047L12.3332 16.7188H18.4443C19.67 16.7188 20.6665 15.7378 20.6665 14.5312V3.4375C20.6665 2.23096 19.67 1.25 18.4443 1.25H2.88873ZM18.7915 3.4375V13.125H2.5415V3.4375H18.7915Z"
          fill="#FFFFFF"/>
</svg>
