<svg width="21" height="20" viewBox="0 0 21 20" fill="none" xmlns="http://www.w3.org/2000/svg">

    <path d="M10.3335 20C12.9857 20 15.5292 18.9464 17.4046 17.0711C19.2799 15.1957 20.3335 12.6522 20.3335 10C20.3335 7.34784 19.2799 4.8043 17.4046 2.92893C15.5292 1.05357 12.9857 0 10.3335 0C7.68133 0 5.13779 1.05357 3.26243 2.92893C1.38706 4.8043 0.333496 7.34784 0.333496 10C0.333496 12.6522 1.38706 15.1957 3.26243 17.0711C5.13779 18.9464 7.68133 20 10.3335 20ZM6.74365 12.7148C7.44287 13.5234 8.63818 14.375 10.3335 14.375C12.0288 14.375 13.2241 13.5234 13.9233 12.7148C14.1499 12.4531 14.5444 12.4258 14.8062 12.6523C15.0679 12.8789 15.0952 13.2734 14.8687 13.5352C13.9976 14.5352 12.4858 15.625 10.3335 15.625C8.18115 15.625 6.66943 14.5352 5.79834 13.5352C5.57178 13.2734 5.59912 12.8789 5.86084 12.6523C6.12256 12.4258 6.51709 12.4531 6.74365 12.7148ZM5.97412 8.125C5.97412 7.79348 6.10582 7.47554 6.34024 7.24112C6.57466 7.0067 6.8926 6.875 7.22412 6.875C7.55564 6.875 7.87358 7.0067 8.108 7.24112C8.34243 7.47554 8.47412 7.79348 8.47412 8.125C8.47412 8.45652 8.34243 8.77446 8.108 9.00888C7.87358 9.2433 7.55564 9.375 7.22412 9.375C6.8926 9.375 6.57466 9.2433 6.34024 9.00888C6.10582 8.77446 5.97412 8.45652 5.97412 8.125ZM13.4741 6.875C13.8056 6.875 14.1236 7.0067 14.358 7.24112C14.5924 7.47554 14.7241 7.79348 14.7241 8.125C14.7241 8.45652 14.5924 8.77446 14.358 9.00888C14.1236 9.2433 13.8056 9.375 13.4741 9.375C13.1426 9.375 12.8247 9.2433 12.5902 9.00888C12.3558 8.77446 12.2241 8.45652 12.2241 8.125C12.2241 7.79348 12.3558 7.47554 12.5902 7.24112C12.8247 7.0067 13.1426 6.875 13.4741 6.875Z"
          fill="#FFFFFF"/>

</svg>
