<svg width="23" height="20" viewBox="0 0 23 20" fill="none" xmlns="http://www.w3.org/2000/svg">
    <path d="M3.4165 3.75C3.4165 3.05859 4.03096 2.5 4.7915 2.5H18.5415C19.3021 2.5 19.9165 3.05859 19.9165 3.75C19.9165 4.44141 19.3021 5 18.5415 5H4.7915C4.03096 5 3.4165 4.44141 3.4165 3.75ZM3.4165 10C3.4165 9.30859 4.03096 8.75 4.7915 8.75H18.5415C19.3021 8.75 19.9165 9.30859 19.9165 10C19.9165 10.6914 19.3021 11.25 18.5415 11.25H4.7915C4.03096 11.25 3.4165 10.6914 3.4165 10ZM19.9165 16.25C19.9165 16.9414 19.3021 17.5 18.5415 17.5H4.7915C4.03096 17.5 3.4165 16.9414 3.4165 16.25C3.4165 15.5586 4.03096 15 4.7915 15H18.5415C19.3021 15 19.9165 15.5586 19.9165 16.25Z" fill="#FFFFFF"/>
</svg>
