<svg width="21" height="20" viewBox="0 0 21 20" fill="none" xmlns="http://www.w3.org/2000/svg">
        <path d="M2.8335 1.25C1.45459 1.25 0.333496 2.37109 0.333496 3.75V16.25C0.333496 17.6289 1.45459 18.75 2.8335 18.75H17.8335C19.2124 18.75 20.3335 17.6289 20.3335 16.25V7.5C20.3335 6.12109 19.2124 5 17.8335 5H3.4585C3.11475 5 2.8335 4.71875 2.8335 4.375C2.8335 4.03125 3.11475 3.75 3.4585 3.75H17.8335C18.5249 3.75 19.0835 3.19141 19.0835 2.5C19.0835 1.80859 18.5249 1.25 17.8335 1.25H2.8335ZM16.5835 10.625C16.915 10.625 17.233 10.7567 17.4674 10.9911C17.7018 11.2255 17.8335 11.5435 17.8335 11.875C17.8335 12.2065 17.7018 12.5245 17.4674 12.7589C17.233 12.9933 16.915 13.125 16.5835 13.125C16.252 13.125 15.934 12.9933 15.6996 12.7589C15.4652 12.5245 15.3335 12.2065 15.3335 11.875C15.3335 11.5435 15.4652 11.2255 15.6996 10.9911C15.934 10.7567 16.252 10.625 16.5835 10.625Z" fill="#FFFFFF"/>
</svg>
