<svg width="19" height="20" viewBox="0 0 19 20" fill="none" xmlns="http://www.w3.org/2000/svg">
    <path d="M8.92759 0.00268869C4.75829 -0.103467 1.02226 2.94557 0.362248 7.0641C-0.131606 10.1472 1.04294 12.9791 3.12221 14.8091C3.76068 15.3707 4.09578 16.2015 4.09578 17.0522V20H11.7882V18.8011C11.7882 18.1387 12.2114 17.5514 12.8399 17.3422L15.352 16.5054C15.9797 16.2953 16.4037 15.7073 16.4037 15.045V12.1108L18.148 11.5098C18.3099 11.4648 18.4527 11.3681 18.5544 11.2343C18.6562 11.1005 18.7113 10.9371 18.7114 10.7691C18.7109 10.5921 18.6493 10.4207 18.5371 10.2838L18.5161 10.2583C18.5088 10.2496 18.5012 10.2411 18.4935 10.2327L16.3721 7.69061C16.0638 3.44982 13.2204 0.110824 8.92759 0.00268869ZM9.32724 4.62866C9.42516 4.60879 9.52838 4.60863 9.63223 4.63017C10.0484 4.71324 10.3185 5.1177 10.2347 5.53463L8.69621 13.2271C8.62391 13.5932 8.30274 13.8461 7.9435 13.8461C7.8935 13.8461 7.84252 13.8418 7.79175 13.831C7.37559 13.748 7.10393 13.342 7.18778 12.9251L8.72626 5.23264C8.788 4.91936 9.03347 4.68827 9.32724 4.62866ZM5.00775 6.16715C5.10605 6.18589 5.20287 6.2253 5.29171 6.28434C5.64557 6.5205 5.74122 6.99721 5.50506 7.35106L4.25053 9.2306L5.50506 11.1116C5.74122 11.4655 5.64557 11.9422 5.29171 12.1784C5.16017 12.2653 5.01268 12.3076 4.86653 12.3076C4.61806 12.3076 4.37268 12.1873 4.22499 11.965L2.6865 9.65729C2.51419 9.39882 2.51419 9.06237 2.6865 8.80391L4.22499 6.49618C4.40153 6.23079 4.71287 6.11093 5.00775 6.16715ZM12.4132 6.16715C12.7077 6.11093 13.0204 6.23079 13.1975 6.49618L14.736 8.80391C14.9083 9.06238 14.9083 9.39882 14.736 9.65729L13.1975 11.965C13.0498 12.1873 12.8044 12.3076 12.556 12.3076C12.4098 12.3076 12.2623 12.2653 12.1308 12.1784C11.7769 11.9422 11.6813 11.4655 11.9174 11.1116L13.1719 9.2306L11.9174 7.34956C11.6813 6.99571 11.7769 6.51899 12.1308 6.28284C12.2192 6.2238 12.3151 6.18589 12.4132 6.16715Z" fill="#FFFFFF"/>
</svg>
