<svg width="21" height="20" viewBox="0 0 21 20" fill="none" xmlns="http://www.w3.org/2000/svg">

        <path d="M8.90552 0C5.87531 0 4.61951 1.94371 4.61951 4.28601C4.61951 5.07464 4.99621 5.86676 4.99621 5.86676C4.84477 5.95391 4.59571 6.23055 4.65857 6.72201C4.77573 7.6385 5.17305 7.87189 5.42593 7.89118C5.52236 8.74623 6.44107 9.84001 6.76252 9.9993V11.428C6.04818 13.571 0.333496 12.1423 0.333496 17.1427H8.5651C8.32722 16.4712 8.19119 15.7526 8.19119 14.9997C8.19119 12.4716 9.65384 10.2911 11.7754 9.24032C12.0676 8.83315 12.3351 8.33192 12.3851 7.89118C12.638 7.87189 13.0353 7.6385 13.1525 6.72201C13.2153 6.22983 12.9663 5.95391 12.8148 5.86676C12.8148 5.86676 13.1915 5.15107 13.1915 4.28601C13.1915 2.55161 12.5108 1.0715 11.0485 1.0715C11.0485 1.0715 10.5406 0 8.90552 0ZM14.6202 9.9993C11.8586 9.9993 9.61986 12.238 9.61986 14.9997C9.61986 17.7613 11.8586 20 14.6202 20C17.3818 20 19.6206 17.7613 19.6206 14.9997C19.6206 12.238 17.3818 9.9993 14.6202 9.9993ZM14.6202 12.1423C15.0145 12.1423 15.3345 12.4616 15.3345 12.8566V14.2853H16.7632C17.1575 14.2853 17.4776 14.6046 17.4776 14.9997C17.4776 15.3947 17.1575 15.714 16.7632 15.714H15.3345V17.1427C15.3345 17.5377 15.0145 17.857 14.6202 17.857C14.2259 17.857 13.9059 17.5377 13.9059 17.1427V15.714H12.4772C12.0829 15.714 11.7629 15.3947 11.7629 14.9997C11.7629 14.6046 12.0829 14.2853 12.4772 14.2853H13.9059V12.8566C13.9059 12.4616 14.2259 12.1423 14.6202 12.1423Z" fill="#FFFFFF"/>

</svg>
