<svg width="21" height="20" viewBox="0 0 21 20" fill="none" xmlns="http://www.w3.org/2000/svg">
    <path d="M15.0254 9.94751C14.0461 10.1233 13.0044 9.81567 12.2474 9.01733L10.9243 7.62207C10.4035 7.07275 10.1118 6.33301 10.1118 5.55664V5.11353L7.34417 3.52051C7.16012 3.41431 7.04553 3.20557 7.05595 2.98218C7.06637 2.75879 7.19138 2.56104 7.38584 2.46948L9.02487 1.70044C9.66381 1.40381 10.3548 1.25 11.0563 1.25H11.6848C12.9592 1.25 14.185 1.7627 15.1122 2.68188L16.6609 4.21997C17.5013 5.05493 17.8138 6.25977 17.5846 7.36938L18.1333 7.95166L18.4111 7.65869C18.7375 7.31445 19.2653 7.31445 19.5883 7.65869L20.4217 8.5376C20.7481 8.88184 20.7481 9.43848 20.4217 9.77905L17.3659 13.0017C17.0395 13.3459 16.5116 13.3459 16.1887 13.0017L15.3553 12.1228C15.0289 11.7786 15.0289 11.2219 15.3553 10.8813L15.6331 10.5884L15.0254 9.94751ZM1.61798 15.0598L9.72632 7.93701C9.84786 8.11646 9.98676 8.28857 10.1361 8.44971L11.4591 9.84497C11.6675 10.0647 11.8897 10.2551 12.1258 10.4199L5.35094 18.9966C4.84742 19.6338 4.10083 20 3.31604 20C1.85063 20 0.666504 18.7476 0.666504 17.2058C0.666504 16.3782 1.01723 15.5908 1.61798 15.0598Z"
          fill="#FFFFFF"/>
</svg>
