<svg width="22" height="22" viewBox="0 0 22 22" fill="none" xmlns="http://www.w3.org/2000/svg">
    <path d="M4.95 18.2001C2.21719 18.2001 0 15.9829 0 13.2501C0 11.0913 1.38187 9.25567 3.30687 8.57849C3.30344 8.48567 3.3 8.39286 3.3 8.30005C3.3 5.2613 5.76125 2.80005 8.8 2.80005C10.8384 2.80005 12.6156 3.90692 13.5678 5.55692C14.0903 5.2063 14.7228 5.00005 15.4 5.00005C17.2219 5.00005 18.7 6.47817 18.7 8.30005C18.7 8.71942 18.6209 9.11818 18.48 9.48942C20.4875 9.89505 22 11.6722 22 13.8001C22 16.2304 20.0303 18.2001 17.6 18.2001H4.95ZM7.66563 12.4594L10.4156 15.2094C10.7388 15.5326 11.2613 15.5326 11.5809 15.2094L14.3309 12.4594C14.6541 12.1363 14.6541 11.6138 14.3309 11.2941C14.0078 10.9744 13.4853 10.971 13.1656 11.2941L11.825 12.6347V8.02505C11.825 7.56786 11.4572 7.20005 11 7.20005C10.5428 7.20005 10.175 7.56786 10.175 8.02505V12.6347L8.83438 11.2941C8.51125 10.971 7.98875 10.971 7.66906 11.2941C7.34938 11.6172 7.34594 12.1397 7.66906 12.4594H7.66563Z" fill="#FFFFFF"/></svg>
